<?xml version="1.0" encoding="UTF-8" standalone="no"?>
<svg
   xmlns:dc="http://purl.org/dc/elements/1.1/"
   xmlns:cc="http://creativecommons.org/ns#"
   xmlns:rdf="http://www.w3.org/1999/02/22-rdf-syntax-ns#"
   xmlns:svg="http://www.w3.org/2000/svg"
   xmlns="http://www.w3.org/2000/svg"
   xmlns:sodipodi="http://sodipodi.sourceforge.net/DTD/sodipodi-0.dtd"
   xmlns:inkscape="http://www.inkscape.org/namespaces/inkscape"
   width="32"
   height="32"
   version="1.1"
   x="0px"
   y="0px"
   viewBox="0 0 16 16"
   enable-background="new 0 0 100 100"
   xml:space="preserve"
   id="svg14"
   sodipodi:docname="icon_stream.svg"
   style="fill:#000000"
   inkscape:version="0.92.4 (5da689c313, 2019-01-14)"><metadata
     id="metadata20"><rdf:RDF><cc:Work
         rdf:about=""><dc:format>image/svg+xml</dc:format><dc:type
           rdf:resource="http://purl.org/dc/dcmitype/StillImage" /><dc:title></dc:title></cc:Work></rdf:RDF></metadata><defs
     id="defs18" /><sodipodi:namedview
     pagecolor="#ffffff"
     bordercolor="#666666"
     borderopacity="1"
     objecttolerance="10"
     gridtolerance="10"
     guidetolerance="10"
     inkscape:pageopacity="0"
     inkscape:pageshadow="2"
     inkscape:window-width="1920"
     inkscape:window-height="1016"
     id="namedview16"
     showgrid="false"
     inkscape:zoom="13.350176"
     inkscape:cx="31.43912"
     inkscape:cy="10.881928"
     inkscape:window-x="0"
     inkscape:window-y="27"
     inkscape:window-maximized="1"
     inkscape:current-layer="svg14" /><path
     style="stroke-width:1.99999988"
     d="M 15.673828,0 0,15.673828 0.32617188,16 l 0.328125,0.326172 1.63085932,1.632812 c 0.9706862,-0.970686 1.0677202,-2.478402 0.296875,-3.560546 l 3.9785157,-3.978516 c 1.0823622,0.770192 2.589643,0.672075 3.5605471,-0.298828 0.970468,-0.9704687 1.069238,-2.4784029 0.298828,-3.5605471 l 3.978516,-3.9785157 c 1.081926,0.7710628 2.590078,0.6755464 3.560546,-0.2949218 L 16,0.32617188 Z M 19.591797,3.9179688 17.603516,5.90625 c -1.082144,-0.77041 -2.592032,-0.673593 -3.5625,0.296875 -0.970469,0.9704684 -1.067285,2.480356 -0.296875,3.5625 l -3.978516,3.978516 c -1.0819264,-0.770628 -2.591814,-0.673811 -3.5625,0.296875 -0.9706862,0.970686 -1.0670672,2.480138 -0.296875,3.5625 l -1.9882812,1.988281 0.6542968,0.654297 1.9882813,-1.988282 c 1.0823616,0.770193 2.5898609,0.671859 3.5605471,-0.298828 0.970686,-0.970685 1.069455,-2.47862 0.298828,-3.560546 l 3.978516,-3.978516 c 1.082143,0.77041 2.590078,0.67164 3.560546,-0.298828 0.970468,-0.9704685 1.069238,-2.4784029 0.298828,-3.5605471 l 1.988282,-1.9882813 z m 2.287109,2.2871093 C 20.908438,7.1755465 20.809884,8.6836986 21.580078,9.765625 l -3.978516,3.978516 c -1.082143,-0.77041 -2.590078,-0.673594 -3.560546,0.296875 -0.970686,0.970686 -1.069021,2.480138 -0.298828,3.5625 l -3.976563,3.976562 c -1.0823618,-0.770194 -2.5922494,-0.673377 -3.5625,0.296875 l 1.6328125,1.632813 0.328125,0.326172 0.3261719,0.328124 1.6328126,1.632813 c 0.970904,-0.970906 1.06772,-2.480358 0.296875,-3.5625 l 3.978516,-3.978516 c 1.082362,0.770192 2.589643,0.674029 3.560546,-0.296875 0.970469,-0.970468 1.069238,-2.480355 0.298828,-3.5625 l 3.976563,-3.976562 c 1.081928,0.771063 2.592032,0.673593 3.5625,-0.296875 L 23.835938,8.1640625 Z m 5.548828,5.5488279 -1.988281,1.988282 c -1.082144,-0.77041 -2.590079,-0.67164 -3.560547,0.298828 -0.970468,0.970468 -1.06924,2.478403 -0.298828,3.560546 l -3.978516,3.978516 c -1.081926,-0.77063 -2.58986,-0.671856 -3.560546,0.298828 -0.970686,0.970688 -1.069021,2.478185 -0.298828,3.560547 l -1.988282,1.988281 0.654297,0.654297 1.988281,-1.988281 c 1.082362,0.770192 2.591814,0.673809 3.5625,-0.296875 0.970686,-0.970686 1.067503,-2.480574 0.296875,-3.5625 l 3.978516,-3.978516 c 1.082144,0.77041 2.592032,0.673594 3.5625,-0.296875 0.970468,-0.970468 1.067283,-2.480356 0.296875,-3.5625 l 1.988281,-1.988281 z m 2.28711,2.28711 c -0.970688,0.970686 -1.067721,2.478403 -0.296875,3.560546 l -3.978516,3.978516 c -1.082144,-0.77041 -2.590079,-0.67164 -3.560547,0.298828 -0.970684,0.970688 -1.06902,2.478185 -0.298828,3.560547 l -3.978516,3.978516 c -1.082144,-0.770846 -2.58986,-0.675762 -3.560546,0.294922 L 15.673828,31.345703 16.326172,32 32,16.326172 31.673828,16 Z"
     transform="scale(0.5)"
     id="path2"
     inkscape:connector-curvature="0"
     sodipodi:nodetypes="cccccccscccccccsccsccccsccsccccccscccccccccccccccccsccccccccccsccccccccccccccc" /></svg>