<?xml version="1.0" encoding="UTF-8" standalone="no"?>
<!-- Generator: Adobe Illustrator 18.1.1, SVG Export Plug-In . SVG Version: 6.00 Build 0)  -->

<svg
   xmlns:dc="http://purl.org/dc/elements/1.1/"
   xmlns:cc="http://creativecommons.org/ns#"
   xmlns:rdf="http://www.w3.org/1999/02/22-rdf-syntax-ns#"
   xmlns:svg="http://www.w3.org/2000/svg"
   xmlns="http://www.w3.org/2000/svg"
   xmlns:sodipodi="http://sodipodi.sourceforge.net/DTD/sodipodi-0.dtd"
   xmlns:inkscape="http://www.inkscape.org/namespaces/inkscape"
   version="1.1"
   id="Gauge"
   x="0px"
   y="0px"
   viewBox="0 0 32 32"
   enable-background="new 0 0 20 20"
   xml:space="preserve"
   sodipodi:docname="icon_gauge.svg"
   width="32"
   height="32"
   inkscape:version="0.92.1 r15371"><metadata
     id="metadata9"><rdf:RDF><cc:Work
         rdf:about=""><dc:format>image/svg+xml</dc:format><dc:type
           rdf:resource="http://purl.org/dc/dcmitype/StillImage" /><dc:title></dc:title></cc:Work></rdf:RDF></metadata><defs
     id="defs7" /><sodipodi:namedview
     pagecolor="#ffffff"
     bordercolor="#666666"
     borderopacity="1"
     objecttolerance="10"
     gridtolerance="10"
     guidetolerance="10"
     inkscape:pageopacity="0"
     inkscape:pageshadow="2"
     inkscape:window-width="1435"
     inkscape:window-height="1011"
     id="namedview5"
     showgrid="false"
     inkscape:zoom="11.8"
     inkscape:cx="23.624975"
     inkscape:cy="3.868607"
     inkscape:window-x="147"
     inkscape:window-y="27"
     inkscape:window-maximized="0"
     inkscape:current-layer="Gauge" /><path
     style="fill:#000000;stroke-width:1"
     d="m 26.013672,7.5449219 c -0.6064,-0.3504 -11.905766,14.2211651 -13.009766,16.1347661 -1.1024,1.915199 -0.361278,3.487893 1.169922,4.371093 1.5296,0.8848 3.265494,0.743325 4.371094,-1.171875 1.1024,-1.912 8.07515,-18.9835841 7.46875,-19.3339841 z M 16,8.3203125 c -8.9712,0 -16,7.5654095 -16,17.2246095 0,0.5936 0.025325,1.188025 0.078125,1.765625 0.0784,0.8816 0.863975,1.526372 1.734375,1.451172 0.8816,-0.0816 1.531525,-0.854728 1.453125,-1.736328 -0.0432,-0.4832 -0.066406,-0.984469 -0.066406,-1.480469 0,-7.8656 5.6231812,-14.025391 12.8007812,-14.025391 0.7008,0 1.381628,0.05863 2.048828,0.173828 0.7008,-0.8784 1.484847,-1.8452715 2.248047,-2.7636715 C 18.933675,8.5360875 17.4944,8.3203125 16,8.3203125 Z m 11.550781,5.1992185 c -0.4464,1.2 -0.917984,2.422516 -1.333984,3.478516 1.624,2.352 2.583984,5.302075 2.583984,8.546875 0,0.5056 -0.02551,1.016965 -0.07031,1.509766 -0.08,0.881599 0.569219,1.658634 1.449219,1.740234 0.048,0.0032 0.09688,0.0059 0.146484,0.0059 0.8176,0 1.516597,-0.624678 1.591797,-1.455078 0.0528,-0.592 0.08203,-1.197581 0.08203,-1.800781 0,-4.7264 -1.684419,-8.943791 -4.449219,-12.025391 z"
     id="path2"
     inkscape:connector-curvature="0"
     sodipodi:nodetypes="scccssscccssccsccsccscsc" /></svg>