<?xml version="1.0" encoding="UTF-8" standalone="no"?>
<svg
   xmlns:dc="http://purl.org/dc/elements/1.1/"
   xmlns:cc="http://creativecommons.org/ns#"
   xmlns:rdf="http://www.w3.org/1999/02/22-rdf-syntax-ns#"
   xmlns:svg="http://www.w3.org/2000/svg"
   xmlns="http://www.w3.org/2000/svg"
   xmlns:sodipodi="http://sodipodi.sourceforge.net/DTD/sodipodi-0.dtd"
   xmlns:inkscape="http://www.inkscape.org/namespaces/inkscape"
   width="32"
   height="32"
   version="1.1"
   x="0px"
   y="0px"
   viewBox="0 0 16 16"
   enable-background="new 0 0 100 100"
   xml:space="preserve"
   id="svg14"
   sodipodi:docname="pattern2.svg"
   style="fill:#000000"
   inkscape:version="0.92.1 r15371"><metadata
     id="metadata20"><rdf:RDF><cc:Work
         rdf:about=""><dc:format>image/svg+xml</dc:format><dc:type
           rdf:resource="http://purl.org/dc/dcmitype/StillImage" /><dc:title></dc:title></cc:Work></rdf:RDF></metadata><defs
     id="defs18" /><sodipodi:namedview
     pagecolor="#ffffff"
     bordercolor="#666666"
     borderopacity="1"
     objecttolerance="10"
     gridtolerance="10"
     guidetolerance="10"
     inkscape:pageopacity="0"
     inkscape:pageshadow="2"
     inkscape:window-width="1167"
     inkscape:window-height="942"
     id="namedview16"
     showgrid="false"
     inkscape:zoom="13.350176"
     inkscape:cx="16.693301"
     inkscape:cy="9.2111567"
     inkscape:window-x="673"
     inkscape:window-y="54"
     inkscape:window-maximized="0"
     inkscape:current-layer="svg14" /><path
     style="stroke-width:2"
     d="M 4,4.4804688 V 27.519531 H 4.4804688 4.9609375 7.359375 c 0,-1.42688 -1.0365175,-2.607137 -2.3984375,-2.835937 V 18.835938 C 6.3225375,18.606497 7.359375,17.4272 7.359375,16 c 0,-1.42656 -1.0368375,-2.608771 -2.3984375,-2.837891 V 7.3164062 c 1.36192,-0.22848 2.4003906,-1.4093775 2.4003906,-2.8359374 H 4.4804688 Z m 5.7597656,0 v 2.921875 c -1.3616,0.2291199 -2.4003906,1.4113306 -2.4003906,2.8378902 0,1.42656 1.0387906,2.606818 2.4003906,2.835938 v 5.847656 c -1.3616,0.2288 -2.4003906,1.409058 -2.4003906,2.835938 0,1.42688 1.0387906,2.60845 2.4003906,2.83789 v 2.921875 h 0.9609374 v -2.921875 c 1.3616,-0.22944 2.398438,-1.41101 2.398438,-2.83789 0,-1.42688 -1.036838,-2.607138 -2.398438,-2.835938 v -5.847656 c 1.3616,-0.22912 2.398438,-1.409378 2.398438,-2.835938 0,-1.4265596 -1.036838,-2.6087702 -2.398438,-2.8378902 v -2.921875 z m 3.3613284,0 c 0,1.42656 1.037157,2.6068174 2.398437,2.8359374 v 5.8476558 c -1.3616,0.22912 -2.40039,1.409378 -2.40039,2.835938 0,1.42688 1.03879,2.608451 2.40039,2.837891 v 5.845703 c -1.3616,0.22944 -2.40039,1.409697 -2.40039,2.835937 H 15.519531 16 h 0.480469 2.40039 c 0,-1.4272 -1.03847,-2.607137 -2.40039,-2.835937 v -5.847656 c 1.3616,-0.229441 2.40039,-1.408738 2.40039,-2.835938 0,-1.42656 -1.03879,-2.608771 -2.40039,-2.837891 V 7.3164062 c 1.36192,-0.22848 2.40039,-1.4093775 2.40039,-2.8359374 H 16 Z m 8.158203,0 v 2.921875 c -1.3616,0.2291199 -2.398438,1.4113306 -2.398438,2.8378902 0,1.42656 1.036838,2.606818 2.398438,2.835938 v 5.847656 c -1.3616,0.2288 -2.398438,1.409058 -2.398438,2.835938 0,1.42688 1.036838,2.60845 2.398438,2.83789 v 2.921875 h 0.960937 v -2.921875 c 1.3616,-0.22944 2.400391,-1.41101 2.400391,-2.83789 0,-1.42688 -1.038791,-2.607138 -2.400391,-2.835938 v -5.847656 c 1.3616,-0.22912 2.400391,-1.409378 2.400391,-2.835938 0,-1.4265596 -1.038791,-2.6087702 -2.400391,-2.8378902 v -2.921875 z m 3.361328,0 c 0,1.4268799 1.036517,2.6071375 2.398437,2.8359374 V 13.164062 C 25.677463,13.393182 24.640625,14.57344 24.640625,16 c 0,1.42688 1.036837,2.608451 2.398437,2.837891 v 5.845703 c -1.36192,0.2288 -2.40039,1.409057 -2.40039,2.835937 H 27.039062 28 V 4.4804688 h -0.480469 z"
     transform="scale(0.5)"
     id="path2"
     inkscape:connector-curvature="0"
     sodipodi:nodetypes="cccccccscccccccsccsccccsccsccccccscccccccccscccccccsccsccccsccsccccccscccccccc" /></svg>